<svg width="120" height="121" viewBox="0 0 120 121" fill="none" xmlns="http://www.w3.org/2000/svg">
<g clip-path="url(#clip0_235_3775)">
<path d="M115.284 37.1446C113.823 33.6919 112.059 30.4084 110.002 27.3157C109.893 27.4467 109.774 27.5725 109.648 27.6925C108.862 28.4374 108.086 29.1916 107.318 29.9568C109.081 32.6838 110.606 35.5643 111.883 38.5829C114.819 45.5238 116.308 52.8977 116.308 60.5C116.308 68.1023 114.819 75.4762 111.883 82.4171C109.048 89.1214 104.987 95.1435 99.8157 100.316C94.6435 105.487 88.6214 109.548 81.9171 112.383C74.9762 115.319 67.6023 116.808 60 116.808C52.3977 116.808 45.0238 115.319 38.0829 112.383C31.3786 109.548 25.3565 105.487 20.1843 100.316C15.0128 95.1435 10.9525 89.1214 8.11652 82.4171C5.18087 75.4762 3.69217 68.1023 3.69217 60.5C3.69217 52.8977 5.18087 45.5238 8.11652 38.5829C10.9525 31.8786 15.0128 25.8565 20.1843 20.6843C25.3565 15.5128 31.3786 11.4525 38.0829 8.61652C45.0238 5.68087 52.3977 4.19217 60 4.19217C67.6023 4.19217 74.9762 5.68087 81.9171 8.61652C88.6214 11.4525 94.6435 15.5128 99.8157 20.6843C100.397 21.2658 100.963 21.8577 101.515 22.46C102.51 21.8646 103.51 21.2855 104.517 20.722C104.608 20.671 104.7 20.6235 104.794 20.58C104.032 19.7249 103.242 18.889 102.427 18.0733C96.9171 12.5638 90.5003 8.23797 83.3554 5.21594C75.9571 2.08667 68.0991 0.5 60 0.5C51.9009 0.5 44.0429 2.08667 36.6446 5.21594C29.4997 8.23797 23.0829 12.5638 17.5733 18.0733C12.0638 23.5829 7.73797 29.9997 4.71594 37.1446C1.58667 44.5429 0 52.4009 0 60.5C0 68.5991 1.58667 76.4571 4.71594 83.8554C7.73797 91.0003 12.0638 97.4171 17.5733 102.927C23.0829 108.436 29.4997 112.762 36.6446 115.784C44.0429 118.913 51.9009 120.5 60 120.5C68.0991 120.5 75.9571 118.913 83.3554 115.784C90.5003 112.762 96.9171 108.436 102.427 102.927C107.936 97.4171 112.262 91.0003 115.284 83.8554C118.413 76.4571 120 68.5991 120 60.5C120 52.4009 118.413 44.5429 115.284 37.1446Z" fill="#20B958"/>
<path d="M32.2426 56.0971C33.2866 55.2722 34.5939 54.8177 35.9243 54.8177C36.8426 54.8177 37.762 55.0351 38.5828 55.4467L56.4252 64.3847C64.5579 54.2658 72.0866 46.0276 79.3869 39.2554C85.2518 33.8154 91.1376 29.1586 97.2171 25.1592C87.8657 15.3151 74.6495 9.17712 59.9997 9.17712C31.6542 9.17712 8.67676 32.1545 8.67676 60.5C8.67676 88.8455 31.6542 111.823 59.9997 111.823C88.3452 111.823 111.323 88.8455 111.323 60.5C111.323 50.6583 108.553 41.4641 103.749 33.6536C98.2756 39.5493 93.1765 46.1203 88.0414 53.8635C81.6727 63.4652 75.8153 74.0589 70.151 84.3041C69.0965 86.2107 67.3324 89.402 63.8362 90.4049C63.1527 90.6009 62.442 90.7 61.7249 90.7C61.7249 90.7 61.7249 90.7 61.7243 90.7C58.6628 90.7 56.1046 88.9661 54.006 87.2705C46.5579 81.2508 40.6199 74.7261 34.3336 67.8183C33.424 66.8189 32.4831 65.7847 31.5469 64.7638C30.4368 63.5522 29.8756 61.918 30.0066 60.2803C30.1382 58.6415 30.9533 57.1168 32.2426 56.0971Z" fill="#20B958"/>
<path d="M57.3883 68.7574L37.026 58.5568C36.1726 58.1296 35.1494 58.2345 34.4005 58.8264C33.281 59.7116 33.1477 61.362 34.1118 62.4142C41.2822 70.238 47.8596 77.8304 56.1929 84.5655C58.1199 86.1232 60.4955 87.7446 62.8776 87.0617C64.8978 86.4826 66.0903 84.4606 67.1071 82.6211C79.1494 60.8403 89.7773 41.7388 107.255 25.169C108.009 24.4542 107.122 23.2507 106.215 23.758C89.1349 33.3122 74.339 47.3307 57.3883 68.7574Z" fill="#20B958"/>
</g>
<defs>
<clipPath id="clip0_235_3775">
<rect width="120" height="120" fill="white" transform="translate(0 0.5)"/>
</clipPath>
</defs>
</svg>
