<svg width="25" height="24" viewBox="0 0 25 24" fill="none" xmlns="http://www.w3.org/2000/svg">
<g clip-path="url(#clip0_69_1041)">
<path d="M24.75 12C24.75 5.3726 19.3774 2.67029e-05 12.75 2.67029e-05C6.12258 2.67029e-05 0.75 5.3726 0.75 12C0.75 17.9896 5.13823 22.954 10.875 23.8542V15.4688H7.82813V12H10.875V9.35628C10.875 6.34878 12.6665 4.68753 15.4076 4.68753C16.7205 4.68753 18.0938 4.9219 18.0938 4.9219V7.87503H16.5806C15.0899 7.87503 14.625 8.80003 14.625 9.74902V12H17.9531L17.4211 15.4688H14.625V23.8542C20.3618 22.954 24.75 17.9896 24.75 12Z" fill="#1877F2"/>
<path d="M17.4211 15.4688L17.9531 12H14.625V9.74899C14.625 8.80001 15.0899 7.875 16.5806 7.875H18.0938V4.92188C18.0938 4.92188 16.7205 4.6875 15.4076 4.6875C12.6665 4.6875 10.875 6.34875 10.875 9.35625V12H7.82812V15.4688H10.875V23.8542C11.4859 23.9501 12.1121 24 12.75 24C13.3879 24 14.0141 23.9501 14.625 23.8542V15.4688H17.4211Z" fill="white"/>
</g>
<defs>
<clipPath id="clip0_69_1041">
<rect width="24" height="24" fill="white" transform="translate(0.75)"/>
</clipPath>
</defs>
</svg>
