<svg width="106" height="22" viewBox="0 0 106 22" fill="none" xmlns="http://www.w3.org/2000/svg">
<path d="M4.082 17H0.21V1.952H10.462V4.922H4.082V8.442H9.648V11.434H4.082V17ZM15.9357 4.13C15.5544 4.46733 15.0777 4.636 14.5057 4.636C13.9044 4.636 13.4204 4.46 13.0537 4.108C12.687 3.756 12.5037 3.294 12.5037 2.722C12.5037 2.15 12.687 1.688 13.0537 1.336C13.4204 0.969333 13.9044 0.785999 14.5057 0.785999C15.0777 0.785999 15.5544 0.961999 15.9357 1.314C16.317 1.666 16.5077 2.13533 16.5077 2.722C16.5077 3.30867 16.317 3.778 15.9357 4.13ZM16.3537 17H12.6797V6H16.3537V17ZM22.9223 17H19.2483V6H22.3723L22.5923 7.65C23.4723 6.374 24.6456 5.736 26.1123 5.736C27.3149 5.736 28.2536 6.08067 28.9283 6.77C29.6176 7.44467 29.9623 8.42733 29.9623 9.718V17H26.2883V10.004C26.2883 8.948 25.7896 8.42 24.7923 8.42C24.2203 8.42 23.7656 8.58867 23.4283 8.926C23.0909 9.26333 22.9223 9.696 22.9223 10.224V17ZM39.5426 15.57C38.9119 16.67 37.8926 17.22 36.4846 17.22C35.0766 17.22 33.9619 16.714 33.1406 15.702C32.3339 14.69 31.9306 13.2893 31.9306 11.5C31.9306 9.72533 32.3412 8.32467 33.1626 7.298C33.9692 6.27133 35.0399 5.758 36.3746 5.758C37.7532 5.758 38.7139 6.264 39.2566 7.276V1.138H42.8646V17H39.9826L39.5426 15.57ZM37.6506 14.602C38.7946 14.602 39.3666 13.568 39.3666 11.5C39.3666 9.41733 38.7946 8.376 37.6506 8.376C36.3452 8.376 35.6926 9.41733 35.6926 11.5C35.6926 13.568 36.3452 14.602 37.6506 14.602Z" fill="#5627FF"/>
<path d="M49.1337 21.29H45.5257V6H48.4517L48.8697 7.408C49.4857 6.308 50.5564 5.758 52.0817 5.758C53.475 5.758 54.5457 6.25667 55.2937 7.254C56.0564 8.25133 56.4377 9.65933 56.4377 11.478C56.4377 13.3407 56.0564 14.7633 55.2937 15.746C54.5457 16.7287 53.4677 17.22 52.0597 17.22C50.6517 17.22 49.6764 16.736 49.1337 15.768V21.29ZM50.7837 14.624C52.0304 14.624 52.6537 13.5753 52.6537 11.478C52.6537 9.42467 52.0304 8.398 50.7837 8.398C50.1677 8.398 49.7204 8.64 49.4417 9.124C49.1777 9.608 49.0457 10.3927 49.0457 11.478C49.0457 13.5753 49.625 14.624 50.7837 14.624ZM63.2972 17.198C61.5666 17.198 60.2172 16.6993 59.2492 15.702C58.2812 14.69 57.7972 13.2673 57.7972 11.434C57.7972 9.55667 58.2959 8.11933 59.2932 7.122C60.2906 6.11 61.6766 5.604 63.4512 5.604C65.0792 5.604 66.3552 6.066 67.2792 6.99C68.2179 7.88467 68.6872 9.08733 68.6872 10.598C68.6872 11.17 68.6139 11.6687 68.4672 12.094H61.4272C61.5006 13.7513 62.1459 14.58 63.3632 14.58C64.3752 14.58 64.9106 14.1547 64.9692 13.304H68.5112C68.4819 14.58 67.9906 15.548 67.0372 16.208C66.0692 16.868 64.8226 17.198 63.2972 17.198ZM61.5592 10.092H65.1012C65.0866 8.80133 64.5219 8.156 63.4072 8.156C62.2339 8.156 61.6179 8.80133 61.5592 10.092ZM73.8473 17.198C72.7179 17.198 71.8526 16.8973 71.2513 16.296C70.6499 15.68 70.3493 14.8367 70.3493 13.766C70.3493 12.7247 70.7453 11.918 71.5373 11.346C72.3439 10.774 73.5246 10.488 75.0793 10.488H76.8613V9.608C76.8613 8.64 76.4359 8.156 75.5853 8.156C74.6759 8.156 74.2213 8.618 74.2213 9.542H70.6353C70.6353 8.29533 71.0606 7.32 71.9113 6.616C72.7619 5.912 74.0086 5.56 75.6513 5.56C78.8779 5.56 80.4913 6.93867 80.4913 9.696V13.7C80.4913 14.0813 80.5353 14.3307 80.6233 14.448C80.7113 14.5653 80.9093 14.624 81.2173 14.624H81.5033V16.758C81.1366 16.9927 80.5206 17.11 79.6553 17.11C79.0246 17.11 78.4819 16.9267 78.0273 16.56C77.5873 16.1933 77.3086 15.6873 77.1913 15.042C76.9713 15.702 76.5679 16.23 75.9813 16.626C75.3946 17.0073 74.6833 17.198 73.8473 17.198ZM75.0573 14.624C75.6146 14.624 76.0546 14.448 76.3773 14.096C76.6999 13.744 76.8613 13.2747 76.8613 12.688V12.336H75.1893C74.3093 12.336 73.8693 12.7247 73.8693 13.502C73.8693 13.854 73.9719 14.1327 74.1773 14.338C74.3973 14.5287 74.6906 14.624 75.0573 14.624ZM88.3726 17.198C86.4073 17.198 84.9699 16.7067 84.0606 15.724C83.1659 14.7413 82.7186 13.304 82.7186 11.412C82.7186 9.54933 83.2026 8.134 84.1706 7.166C85.1533 6.18333 86.5539 5.692 88.3726 5.692C89.9273 5.692 91.1446 6.08067 92.0246 6.858C92.9046 7.62067 93.3446 8.72067 93.3446 10.158H89.8246C89.8246 8.926 89.3406 8.31 88.3726 8.31C87.6686 8.31 87.1699 8.54467 86.8766 9.014C86.5833 9.48333 86.4366 10.2827 86.4366 11.412C86.4366 12.468 86.5833 13.26 86.8766 13.788C87.1846 14.316 87.6833 14.58 88.3726 14.58C89.2673 14.58 89.7146 13.9713 89.7146 12.754H93.3446C93.3446 14.1473 92.9119 15.24 92.0466 16.032C91.1959 16.8093 89.9713 17.198 88.3726 17.198ZM100.336 17.198C98.6056 17.198 97.2563 16.6993 96.2883 15.702C95.3203 14.69 94.8363 13.2673 94.8363 11.434C94.8363 9.55667 95.335 8.11933 96.3323 7.122C97.3296 6.11 98.7156 5.604 100.49 5.604C102.118 5.604 103.394 6.066 104.318 6.99C105.257 7.88467 105.726 9.08733 105.726 10.598C105.726 11.17 105.653 11.6687 105.506 12.094H98.4663C98.5396 13.7513 99.185 14.58 100.402 14.58C101.414 14.58 101.95 14.1547 102.008 13.304H105.55C105.521 14.58 105.03 15.548 104.076 16.208C103.108 16.868 101.862 17.198 100.336 17.198ZM98.5983 10.092H102.14C102.126 8.80133 101.561 8.156 100.446 8.156C99.273 8.156 98.657 8.80133 98.5983 10.092Z" fill="#5A5B5A"/>
</svg>
