<svg width="25" height="24" viewBox="0 0 25 24" fill="none" xmlns="http://www.w3.org/2000/svg">
<path d="M22.81 12.25C22.81 11.47 22.74 10.72 22.61 10H12.25V14.255H18.17C17.915 15.63 17.14 16.795 15.975 17.575V20.335H19.53C21.61 18.42 22.81 15.6 22.81 12.25Z" fill="#4285F4"/>
<path d="M12.2499 23.0001C15.2199 23.0001 17.7099 22.0151 19.5299 20.3351L15.9749 17.5751C14.9899 18.2351 13.7299 18.6251 12.2499 18.6251C9.38492 18.6251 6.95992 16.6901 6.09492 14.0901H2.41992V16.9401C4.22992 20.5351 7.94992 23.0001 12.2499 23.0001Z" fill="#34A853"/>
<path d="M6.095 14.0901C5.875 13.4301 5.75 12.7251 5.75 12.0001C5.75 11.2751 5.875 10.5701 6.095 9.91006V7.06006H2.42C1.65 8.59292 1.24932 10.2847 1.25 12.0001C1.25 13.7751 1.675 15.4551 2.42 16.9401L6.095 14.0901Z" fill="#FBBC05"/>
<path d="M12.2499 5.375C13.8649 5.375 15.3149 5.93 16.4549 7.02L19.6099 3.865C17.7049 2.09 15.2149 1 12.2499 1C7.94992 1 4.22992 3.465 2.41992 7.06L6.09492 9.91C6.95992 7.31 9.38492 5.375 12.2499 5.375Z" fill="#EA4335"/>
</svg>
